<?xml version="1.0" encoding="iso-8859-1"?>
<!-- Generator: Adobe Illustrator 19.0.0, SVG Export Plug-In . SVG Version: 6.00 Build 0)  -->
<svg version="1.1" id="Capa_1" xmlns="http://www.w3.org/2000/svg" xmlns:xlink="http://www.w3.org/1999/xlink" x="0px" y="0px"
	 viewBox="0 0 512 512" style="enable-background:new 0 0 512 512;" xml:space="preserve">
<path style="fill:#E47700;" d="M256,512L256,512c139.695-52.258,232.276-185.739,232.276-334.887V86.716
	c-47.892,0-86.716-38.824-86.716-86.716H256H110.44c0,47.892-38.824,86.716-86.716,86.716v90.396
	C23.724,326.261,116.305,459.742,256,512L256,512z"/>
<path style="fill:#984D00;" d="M256,512L256,512c139.695-52.258,232.276-185.739,232.276-334.887V86.716
	c-47.892,0-86.716-38.824-86.716-86.716H256C256,0,256,398,256,512L256,512z"/>
<path style="fill:#FFDB0C;" d="M256,367.924L256,367.924c69.851-26.13,116.145-92.875,116.145-167.453v-29.117
	c-23.947,0-43.361-19.413-43.361-43.361H256h-72.784c0,23.947-19.413,43.361-43.361,43.361v29.117
	C139.855,275.049,186.149,341.794,256,367.924L256,367.924z"/>
<path style="fill:#FBBF00;" d="M367.95,238.987c2.751-12.477,4.195-25.374,4.195-38.516v-29.117
	c-23.947,0-43.361-19.413-43.361-43.361H256v110.994H367.95z"/>
<path style="fill:#FFA900;" d="M256,238.987v128.937l0,0c57.542-21.525,99.091-70.614,111.95-128.937L256,238.987L256,238.987z"/>
<path style="fill:#FBBF00;" d="M144.05,238.987C156.909,297.31,198.458,346.398,256,367.924l0,0V238.987H144.05z"/>
<g>
</g>
<g>
</g>
<g>
</g>
<g>
</g>
<g>
</g>
<g>
</g>
<g>
</g>
<g>
</g>
<g>
</g>
<g>
</g>
<g>
</g>
<g>
</g>
<g>
</g>
<g>
</g>
<g>
</g>
</svg>
